<svg xmlns="http://www.w3.org/2000/svg" width="939pt" height="181pt" viewBox="0 0 939 181" version="1.1">
<g id="#004757ff">
<path fill="#004757" opacity="1.00" d=" M 0.00 2.41 C 19.32 1.57 38.69 -0.03 58.03 1.25 C 71.89 2.31 86.56 6.21 96.39 16.63 C 104.18 24.63 107.40 35.96 107.74 46.89 C 108.12 59.70 107.63 73.38 100.64 84.58 C 94.62 95.18 83.29 101.55 71.84 104.64 C 55.89 108.89 39.23 106.95 23.00 105.79 C 23.03 129.61 22.90 153.44 22.94 177.26 C 15.29 177.10 7.65 177.28 0.00 177.22 L 0.00 2.41 M 23.10 20.45 C 22.84 42.23 23.15 64.02 22.87 85.80 C 33.36 87.70 44.08 88.31 54.72 87.62 C 63.12 86.78 71.87 84.06 77.75 77.70 C 82.90 72.12 84.71 64.33 85.11 56.95 C 85.43 48.64 85.55 39.55 80.41 32.51 C 76.53 26.40 69.59 23.44 62.87 21.65 C 49.80 18.68 36.35 20.27 23.10 20.45 Z"/>
<path fill="#004757" opacity="1.00" d=" M 142.00 1.89 C 159.99 1.89 177.95 0.12 195.94 0.87 C 208.62 1.75 221.69 4.33 232.39 11.57 C 240.08 16.81 245.15 25.27 247.62 34.12 C 249.43 45.61 249.73 57.61 246.65 68.93 C 244.43 75.58 240.39 81.56 235.46 86.50 C 230.01 91.68 223.10 94.98 216.09 97.46 C 231.35 123.84 245.92 150.63 261.16 177.01 C 252.58 177.26 243.99 177.30 235.42 176.92 C 232.85 170.70 228.91 165.22 225.82 159.27 C 215.63 140.14 204.22 121.68 194.43 102.33 C 184.45 102.34 174.47 102.13 164.50 101.85 C 164.77 126.93 164.49 152.01 164.70 177.09 C 157.18 177.31 149.66 177.14 142.13 177.18 C 141.96 118.75 142.14 60.32 142.00 1.89 M 164.63 20.53 C 164.62 41.30 164.63 62.08 164.62 82.85 C 179.33 83.47 194.65 85.90 208.85 80.78 C 218.92 77.59 225.90 67.43 226.23 57.02 C 226.44 48.76 227.29 39.65 222.49 32.41 C 217.54 24.93 208.37 21.86 199.89 20.62 C 188.17 19.52 176.37 20.19 164.63 20.53 Z"/>
<path fill="#004757" opacity="1.00" d=" M 331.56 1.73 C 348.39 -0.44 366.82 0.27 381.70 9.31 C 392.40 15.73 399.27 27.14 401.72 39.21 C 403.01 45.02 403.51 50.98 403.45 56.92 C 403.40 80.61 403.49 104.30 403.41 127.99 C 403.05 142.20 398.77 157.23 388.03 167.11 C 376.93 177.00 361.54 180.40 347.02 180.18 C 332.52 180.64 317.07 177.89 305.55 168.51 C 297.11 161.72 292.16 151.48 289.97 141.05 C 287.76 131.19 288.41 121.05 288.31 111.03 C 288.15 92.68 288.31 74.32 288.32 55.97 C 288.36 41.48 291.95 26.05 302.38 15.40 C 310.09 7.53 320.87 3.52 331.56 1.73 M 340.41 21.54 C 334.31 22.00 328.14 23.49 323.03 26.98 C 317.47 30.57 313.90 36.60 312.22 42.91 C 310.45 49.10 310.94 55.60 310.88 61.95 C 310.74 83.61 310.84 105.28 310.82 126.94 C 310.81 135.96 313.47 145.49 320.13 151.89 C 326.86 157.97 336.24 159.57 345.01 159.82 C 352.36 159.92 359.93 158.90 366.57 155.58 C 375.89 150.36 380.84 139.46 380.91 129.05 C 381.16 104.02 381.06 78.99 380.98 53.97 C 380.88 44.36 378.00 33.91 370.03 27.86 C 361.66 21.54 350.51 20.81 340.41 21.54 Z"/>
<path fill="#004757" opacity="1.00" d=" M 734.04 1.85 C 743.94 0.22 754.01 0.77 763.99 1.10 C 773.95 1.53 783.91 2.51 793.67 4.58 C 793.10 10.98 793.31 17.40 793.46 23.81 C 777.33 22.45 761.18 20.58 744.98 21.26 C 737.32 21.61 728.78 23.36 723.67 29.59 C 718.68 37.02 719.52 46.44 719.74 54.95 C 719.72 60.40 722.00 66.35 727.09 68.94 C 744.21 78.28 764.47 78.68 781.99 86.96 C 788.50 90.35 795.13 94.61 798.56 101.36 C 805.10 111.97 804.53 125.00 804.34 136.99 C 804.22 149.50 799.49 162.57 789.15 170.17 C 780.52 176.00 770.18 178.80 759.89 179.68 C 742.63 181.01 725.24 180.00 708.19 177.11 C 708.53 169.69 707.33 162.04 709.41 154.79 C 709.88 155.67 710.35 156.55 710.83 157.43 C 726.43 159.26 742.26 161.02 757.93 159.05 C 763.75 158.48 769.63 157.01 774.32 153.35 C 779.72 149.86 781.83 143.08 781.92 136.95 C 781.98 129.70 782.78 122.05 779.75 115.24 C 777.62 110.19 772.25 107.77 767.58 105.59 C 750.70 99.67 732.42 97.89 716.35 89.68 C 710.14 86.13 704.31 81.29 701.32 74.63 C 696.85 65.09 697.21 54.25 697.28 43.95 C 697.50 33.01 700.37 21.31 708.56 13.53 C 715.26 6.63 724.67 3.15 734.04 1.85 Z"/>
<path fill="#004757" opacity="1.00" d=" M 430.02 3.74 C 468.44 4.20 506.88 3.50 545.30 4.17 C 545.35 10.97 545.33 17.78 545.00 24.57 C 529.59 24.33 514.18 24.42 498.77 24.62 C 498.85 75.50 498.98 126.37 498.80 177.25 C 491.32 177.18 483.84 177.27 476.37 177.09 C 476.33 126.25 476.26 75.41 476.31 24.57 C 460.88 24.19 445.44 24.57 430.01 24.50 C 429.94 17.58 429.88 10.66 430.02 3.74 Z"/>
<path fill="#004757" opacity="1.00" d=" M 823.38 4.30 C 846.90 3.39 870.43 4.15 893.96 3.87 C 908.88 4.05 923.81 3.59 938.74 4.17 C 938.73 10.98 938.63 17.78 938.54 24.58 C 923.17 24.31 907.81 24.46 892.44 24.50 C 892.20 75.43 892.36 126.35 892.31 177.28 C 884.79 177.23 877.27 177.11 869.76 177.26 C 869.70 126.38 869.84 75.52 869.82 24.64 C 854.44 24.20 839.05 24.46 823.66 24.58 C 823.29 17.82 823.36 11.06 823.38 4.30 Z"/>
<path fill="#004757" opacity="1.00" d=" M 631.69 7.64 C 633.98 6.44 636.35 5.40 638.75 4.39 C 642.77 13.03 647.40 21.37 651.46 29.99 C 632.49 39.40 613.63 49.07 594.85 58.83 C 593.42 59.83 592.34 58.15 591.85 57.04 C 588.08 49.29 584.22 41.57 580.20 33.94 C 597.36 25.17 614.58 16.51 631.69 7.64 Z"/>
<path fill="#004757" opacity="1.00" d=" M 644.04 116.09 C 648.09 114.19 651.84 111.56 656.22 110.42 C 659.95 119.15 665.08 127.19 668.67 135.99 C 660.21 139.56 652.35 144.32 644.03 148.17 C 626.11 157.62 607.85 166.42 589.94 175.90 C 587.03 177.37 584.02 178.63 580.99 179.82 C 577.46 171.94 573.26 164.38 569.31 156.70 C 567.89 154.68 570.29 153.54 571.78 152.81 C 596.03 140.90 619.82 128.07 644.04 116.09 Z"/>
</g>
<g id="#f7e400ff">
<path fill="#f7e400" opacity="1.00" d=" M 615.35 73.26 C 630.93 65.75 645.97 57.35 661.63 49.98 C 664.36 54.74 667.01 59.55 669.34 64.53 C 671.03 68.31 673.58 71.78 674.14 76.00 C 667.11 78.64 660.79 82.80 653.92 85.78 C 649.64 88.87 644.19 89.93 640.14 93.36 C 635.05 94.79 630.89 98.17 626.02 100.08 C 615.66 105.33 605.29 110.56 595.06 116.05 C 585.10 120.42 575.80 126.17 565.84 130.58 C 562.86 131.53 561.06 134.80 557.57 133.90 C 554.07 126.04 549.94 118.47 546.07 110.81 C 545.94 107.83 549.37 106.51 551.73 105.74 C 566.72 98.13 581.79 90.65 596.75 82.84 C 599.66 81.21 603.12 80.40 605.49 77.91 C 608.96 76.79 612.25 75.19 615.35 73.26 Z"/>
</g>
</svg>